HIERARCHY
ROOT root
{
	OFFSET 0.000000 0.000000 0.000000
	CHANNELS 6 Xposition Yposition Zposition Zrotation Yrotation Xrotation
	JOINT lhip
	{
		OFFSET 0.058581 -0.082280 -0.017664
		CHANNELS 3 Zrotation Yrotation Xrotation
		JOINT lknee
		{
			OFFSET 0.043451 -0.386469 0.008037
			CHANNELS 3 Zrotation Yrotation Xrotation
			JOINT lankle
			{
				OFFSET -0.014790 -0.426874 -0.037428
				CHANNELS 3 Zrotation Yrotation Xrotation
				JOINT ltoe
				{
					OFFSET 0.041054 -0.060286 0.122042
					CHANNELS 3 Zrotation Yrotation Xrotation
					End Site
					{
						OFFSET 0.000000 0.000000 0.000000
					}
				}
			}
		}
	}
	JOINT rhip
	{
		OFFSET -0.060310 -0.090513 -0.013543
		CHANNELS 3 Zrotation Yrotation Xrotation
		JOINT rknee
		{
			OFFSET -0.043257 -0.383688 -0.004843
			CHANNELS 3 Zrotation Yrotation Xrotation
			JOINT rankle
			{
				OFFSET 0.019056 -0.420046 -0.034562
				CHANNELS 3 Zrotation Yrotation Xrotation
				JOINT rtoe
				{
					OFFSET -0.034840 -0.062106 0.130323
					CHANNELS 3 Zrotation Yrotation Xrotation
					End Site
					{
						OFFSET 0.000000 0.000000 0.000000
					}
				}
			}
		}
	}
	JOINT lowerback
	{
		OFFSET 0.004439 0.124404 -0.038385
		CHANNELS 3 Zrotation Yrotation Xrotation
		JOINT upperback
		{
			OFFSET 0.004488 0.137956 0.026820
			CHANNELS 3 Zrotation Yrotation Xrotation
			JOINT chest
			{
				OFFSET -0.002265 0.056032 0.002855
				CHANNELS 3 Zrotation Yrotation Xrotation
				JOINT lowerneck
				{
					OFFSET -0.013390 0.211636 -0.033468
					CHANNELS 3 Zrotation Yrotation Xrotation
					JOINT upperneck
					{
						OFFSET 0.010113 0.088937 0.050410
						CHANNELS 3 Zrotation Yrotation Xrotation
						End Site
						{
							OFFSET 0.000000 0.000000 0.000000
						}
					}
				}
				JOINT lclavicle
				{
					OFFSET 0.071702 0.114000 -0.018898
					CHANNELS 3 Zrotation Yrotation Xrotation
					JOINT lshoulder
					{
						OFFSET 0.122921 0.045205 -0.019046
						CHANNELS 3 Zrotation Yrotation Xrotation
						JOINT lelbow
						{
							OFFSET 0.255332 -0.015649 -0.022946
							CHANNELS 3 Zrotation Yrotation Xrotation
							JOINT lwrist
							{
								OFFSET 0.265709 0.012698 -0.007375
								CHANNELS 3 Zrotation Yrotation Xrotation
								End Site
								{
									OFFSET 0.000000 0.000000 0.000000
								}
							}
						}
					}
				}
				JOINT rclavicle
				{
					OFFSET -0.082954 0.112472 -0.023707
					CHANNELS 3 Zrotation Yrotation Xrotation
					JOINT rshoulder
					{
						OFFSET -0.113228 0.046853 -0.008472
						CHANNELS 3 Zrotation Yrotation Xrotation
						JOINT relbow
						{
							OFFSET -0.260127 -0.014369 -0.031269
							CHANNELS 3 Zrotation Yrotation Xrotation
							JOINT rwrist
							{
								OFFSET -0.269108 0.006794 -0.006027
								CHANNELS 3 Zrotation Yrotation Xrotation
								End Site
								{
									OFFSET 0.000000 0.000000 0.000000
								}
							}
						}
					}
				}
			}
		}
	}
}
MOTION
Frames: 17
Frame Time: 0.033333
-0.065894 0.231187 0.980365 90.680157 -0.333878 87.138103 9.915976 4.289113 6.566666 -1.285686 -3.924008 2.848585 -1.659113 9.708796 -13.064831 0.000000 -0.000000 0.000000 -5.603416 -0.696579 -0.761438 -1.028156 6.750592 14.280823 1.262137 -2.416392 -16.026937 0.000000 -0.000000 0.000000 1.629080 -0.562021 4.815739 2.557218 -0.928574 5.647260 -1.317051 -0.303688 -0.073958 6.919389 -10.265556 -2.150460 -0.065680 -17.745769 16.433272 -33.673841 5.501623 0.432126 -48.899269 -4.312324 4.911280 12.560538 -23.984028 -1.971256 2.523110 -3.149080 1.995441 31.147117 -0.859475 3.986087 41.097932 5.329231 8.441139 -13.989120 34.905549 1.307773 4.172286 6.199191 7.805458 
-0.066545 0.229338 0.979454 89.888892 -0.730203 87.421259 9.483527 3.616835 6.034383 -1.376535 -2.912912 3.628796 -1.448302 10.291180 -13.225424 0.000000 -0.000000 0.000000 -5.666897 0.583301 -1.852220 -1.048447 7.330898 15.455918 2.627154 -3.496079 -16.111020 0.000000 -0.000000 0.000000 1.913745 -0.786440 4.675815 2.675352 -0.793270 5.826696 -1.348883 -0.950044 0.535575 6.417474 -12.201552 -1.481386 -1.219186 -18.854002 18.494986 -33.588489 5.362930 0.857110 -49.281091 -5.021695 5.978935 12.254750 -24.497561 -1.320004 3.273305 -3.253225 0.590563 30.065563 -2.020820 3.723177 41.296717 7.805196 8.770365 -14.495486 37.206537 0.874551 4.025143 6.332809 8.534753 
-0.068158 0.228467 0.979583 88.980237 -1.177168 87.410674 9.096891 3.683570 5.621461 -1.454177 -2.175275 4.846727 -1.083589 10.409532 -13.483607 0.000000 -0.000000 0.000000 -5.785276 1.312312 -2.950812 -1.262893 7.784000 17.062443 3.112490 -3.653168 -16.116311 0.000000 -0.000000 0.000000 2.141590 -0.956253 5.698696 2.756837 -0.805270 5.957614 -1.564669 -0.532097 0.772625 6.606571 -14.083629 -1.058575 -1.347864 -19.965873 19.128341 -33.318431 4.483805 1.708183 -49.781693 -5.755860 6.363121 12.627775 -26.398710 0.011500 1.202483 -3.207593 1.157931 29.543868 -1.988932 5.344457 41.564106 8.054178 7.973683 -18.625148 42.281795 -1.656225 4.511507 6.266920 7.674861 
-0.071092 0.224665 0.979661 87.888900 -1.747415 87.956552 8.403804 3.566650 4.119357 -1.477019 -1.342572 6.631098 -1.101040 11.029570 -13.745982 0.000000 -0.000000 0.000000 -5.721741 2.443847 -5.255408 -1.594970 8.367279 19.516038 3.712211 -4.271033 -16.379341 0.000000 -0.000000 0.000000 1.973255 -1.496363 6.457045 3.173547 -1.068932 5.715156 -1.250057 -1.382823 1.178037 6.265795 -14.677178 -0.731547 -2.424865 -20.273140 20.352758 -32.619873 4.202117 1.870882 -50.696220 -6.282477 7.595160 13.073536 -29.048502 0.821433 3.281694 -3.887073 0.164598 28.680625 -1.677207 4.306740 40.135257 9.657028 9.215560 -18.612530 45.533760 -1.396063 2.656251 6.936800 7.112566 
-0.076269 0.224055 0.979409 86.628878 -2.313936 87.987722 7.722195 3.745282 3.428211 -1.509248 -0.531554 7.904768 -1.066669 11.641059 -14.082307 0.000000 -0.000000 0.000000 -5.762201 3.588301 -7.329419 -1.830054 9.283695 22.334146 4.281529 -4.793776 -16.880457 0.000000 -0.000000 0.000000 1.745536 -1.901609 7.977325 3.306640 -1.001228 5.601388 -1.115356 -1.457906 1.500492 6.435749 -14.911156 -1.001540 -2.609494 -20.207208 20.313211 -32.102666 3.221909 2.194445 -50.808947 -6.907958 8.395715 12.581141 -31.509321 2.412235 5.361350 -4.961870 1.038032 28.138078 -0.730979 4.048921 39.657937 10.267799 9.501777 -20.853701 48.478213 -3.172804 1.607114 7.298676 6.886670 
-0.082919 0.222835 0.979319 84.989443 -3.005211 88.045708 6.974671 4.142029 2.550215 -1.555429 0.427923 9.560943 -0.868144 12.362199 -14.630542 0.000000 -0.000000 0.000000 -5.819263 4.570306 -10.305618 -1.801387 10.252083 26.364417 4.345918 -4.981621 -17.694446 0.000000 -0.000000 0.000000 1.323261 -2.301230 10.205902 3.679550 -1.238571 5.363379 -0.887492 -1.538251 1.580993 6.506908 -14.632260 -1.113755 -2.601148 -20.117745 19.719342 -31.424479 1.611460 2.292448 -50.849309 -7.428436 9.566847 11.344182 -34.982607 4.968332 9.472305 -6.047799 3.197887 27.712822 1.468420 2.956860 38.883352 10.187817 9.892602 -23.233977 50.823564 -5.235546 -0.780059 8.085073 7.469467 
-0.089236 0.221952 0.978844 82.779839 -3.435462 87.989240 6.731401 5.412712 2.147317 -1.686630 1.158256 10.964596 -0.965203 12.484314 -15.297617 0.000000 -0.000000 0.000000 -5.866476 5.263315 -12.490425 -1.799319 10.779273 29.132149 4.208193 -3.975604 -18.341565 0.000000 -0.000000 0.000000 1.566308 -2.827504 12.667048 3.840743 -1.389184 5.308727 -0.835732 -1.536630 1.518701 6.499504 -13.749068 -1.474059 -2.724274 -20.016208 19.442942 -30.976561 -0.880548 2.386435 -50.358909 -7.928580 10.803247 9.833007 -38.548973 8.351920 11.534092 -7.661199 5.408759 27.301559 3.926930 2.397193 37.832914 10.946667 9.754331 -24.657020 52.339172 -6.052023 -3.372350 8.696723 8.118627 
-0.095493 0.221560 0.977858 80.384544 -3.878204 88.329958 6.403871 6.050269 1.667381 -1.822381 2.463040 11.736190 -0.831893 12.876843 -15.471034 0.000000 -0.000000 0.000000 -6.225178 5.532619 -14.140483 -1.577188 11.654206 30.034909 4.070935 -2.811601 -18.584481 0.000000 -0.000000 0.000000 2.139385 -3.423374 14.294140 3.999717 -2.062320 5.926366 -1.054033 -1.324131 1.445548 6.393415 -12.581225 -1.919074 -2.793055 -19.378957 19.097630 -30.780696 -4.085394 2.260187 -49.485301 -9.208089 12.412956 7.963542 -41.456601 10.726572 13.151300 -8.476958 5.857766 27.051684 6.759646 2.343741 36.160333 12.793747 9.478894 -25.298214 52.221981 -6.585920 -5.648119 8.876791 9.930186 
-0.101404 0.221432 0.977943 77.236738 -4.142020 89.294221 5.988296 6.816937 0.762342 -1.633083 4.574058 12.398690 -0.748858 13.293731 -15.413827 0.000000 -0.000000 0.000000 -6.796882 5.699448 -16.023309 -0.958490 12.835591 29.825737 4.534300 -0.983609 -18.121953 0.000000 -0.000000 0.000000 3.008234 -3.684444 16.346680 4.043874 -1.835631 5.349135 -0.838464 -1.391563 1.139104 5.943268 -12.148644 -2.216634 -3.116946 -18.491828 19.343867 -31.421084 -7.216561 1.957662 -48.566220 -11.024348 14.032292 6.356196 -43.380240 12.477400 12.916620 -9.658208 6.803414 27.084452 9.129377 2.476700 33.508330 14.709523 8.805430 -24.628007 51.390829 -6.411700 -5.581707 9.889033 11.574050 
-0.110527 0.222471 0.979680 72.944312 -4.169946 90.668221 5.657464 7.725981 -0.353514 -1.499765 6.989946 12.757699 -0.699169 14.181638 -14.864257 0.000000 -0.000000 0.000000 -7.606374 6.202255 -18.792582 0.312334 13.599392 29.378160 5.274421 1.346179 -16.939390 0.000000 -0.000000 0.000000 4.422180 -4.951001 19.628083 3.846812 -1.734903 4.581989 -0.954022 -0.835238 0.960425 5.763555 -11.004852 -3.641810 -3.170023 -17.347586 19.351393 -31.412803 -11.081180 0.874483 -48.182353 -14.145388 15.471310 5.682773 -45.193931 14.078163 12.383236 -10.575003 8.165093 26.502584 13.166964 2.573668 30.926881 17.602600 7.931553 -23.264846 48.634981 -5.613932 -5.929136 9.635096 13.812472 
-0.118876 0.223372 0.980582 69.109601 -4.182723 92.477074 5.577358 8.617387 -2.011327 -1.603924 8.892392 13.391875 -0.794544 14.365353 -14.552467 0.000000 -0.000000 0.000000 -7.980747 6.213981 -21.730958 0.737526 14.381578 29.000236 6.115115 2.979971 -17.431730 0.000000 -0.000000 0.000000 5.126559 -5.658362 22.070625 3.686670 -1.561658 4.119466 -0.746572 -0.327479 0.797612 5.574115 -10.113227 -5.177222 -2.772550 -16.454544 18.715018 -30.236204 -14.461351 0.432653 -48.869100 -16.806517 16.205313 7.066467 -46.682575 13.792311 11.631193 -10.829598 8.640024 25.155732 16.782142 2.803641 29.546093 19.911699 6.655663 -22.350474 45.775504 -4.978900 -4.970563 9.746976 15.106264 
-0.126617 0.224125 0.982623 65.317461 -4.669774 94.085983 5.130761 9.549862 -3.305743 -1.954225 9.734119 14.101395 -1.133560 14.200768 -14.498083 0.000000 -0.000000 0.000000 -8.800647 5.317259 -24.220074 0.076238 13.488337 28.087338 6.761424 2.387993 -17.161114 0.000000 -0.000000 0.000000 5.316804 -5.827251 25.046092 3.331144 -1.672958 3.895880 -0.313259 -0.186457 0.309975 5.151086 -9.435874 -6.667371 -2.270156 -15.304672 17.886538 -28.962254 -18.129990 0.454689 -48.652752 -19.332433 16.083174 9.421818 -48.041056 11.629898 12.028285 -11.322539 8.385578 23.813327 20.630872 3.073829 28.097044 22.169149 5.201972 -21.391988 42.604551 -5.157425 -4.225560 9.501479 15.935511 
-0.133038 0.223513 0.983031 62.561687 -5.014340 95.506616 4.890979 10.574381 -4.525847 -2.047981 10.377397 14.717679 -1.469241 13.367365 -14.321500 0.000000 -0.000000 0.000000 -9.511966 3.110444 -26.648319 -1.424529 9.447278 27.415620 5.542805 -0.672103 -17.422636 0.000000 -0.000000 0.000000 5.886310 -6.209756 28.079175 2.970160 -1.721274 3.447582 0.211662 -0.441205 0.067146 4.446945 -8.954937 -7.675761 -1.393532 -13.708439 16.630893 -27.681571 -22.117682 0.787384 -47.543644 -22.305497 15.316978 11.285059 -48.564028 8.263618 14.505130 -11.489465 6.631921 22.280458 24.423044 2.854903 26.708525 23.705940 3.681059 -20.747061 39.518412 -6.465074 -5.233067 9.638095 16.074358 
-0.138659 0.221240 0.981758 60.373253 -5.191648 96.884924 4.944430 10.977534 -5.880071 -2.146691 11.064485 15.402868 -1.728793 12.944613 -14.164697 0.000000 -0.000000 0.000000 -10.048999 1.543267 -29.023737 -2.138381 5.839099 27.268443 4.762354 -2.334852 -14.806430 0.000000 -0.000000 0.000000 6.338763 -6.734957 31.256206 2.899277 -1.933161 2.979497 0.716562 -0.416111 -0.441056 3.806454 -8.416199 -8.619234 -0.665195 -12.714920 15.746489 -26.483603 -26.143183 0.924180 -46.089477 -25.311182 14.192890 13.247971 -47.763970 4.421050 14.141887 -11.315857 4.763182 20.802833 27.872078 2.720812 25.199148 25.154843 2.014281 -20.163390 36.264378 -8.308213 -4.594136 8.952526 14.419162 
-0.143552 0.216674 0.978980 58.252371 -5.590609 98.394087 4.745911 11.223043 -7.450233 -2.150841 12.108011 16.440639 -1.613497 12.987749 -14.444424 0.000000 -0.000000 0.000000 -10.171416 0.648552 -31.566745 -1.863662 5.255577 27.227878 5.350081 -1.421451 -10.088909 0.000000 -0.000000 0.000000 6.404078 -6.646273 33.842782 2.980317 -2.141903 2.624941 1.305768 -0.689316 -0.695292 3.273313 -7.929750 -9.374686 -0.044807 -11.887184 15.037462 -25.919825 -30.091092 0.855940 -43.651805 -28.460698 12.642222 14.128759 -45.303883 1.309877 13.973736 -11.916582 5.401906 19.931317 30.767783 2.416079 23.435542 26.743920 0.320032 -19.353265 32.722931 -10.314383 -4.448595 8.938634 13.462705 
-0.147264 0.210416 0.975441 56.794980 -6.208532 99.190391 4.329387 11.565338 -8.361492 -1.846725 12.606451 17.437886 -1.760565 13.180535 -14.772152 0.000000 -0.000000 0.000000 -10.207390 0.536143 -33.845878 -2.175826 4.752085 28.900059 6.179648 -1.072401 -9.439502 0.000000 -0.000000 0.000000 6.183152 -7.149133 37.395378 2.930270 -2.451692 1.798694 1.733153 -0.874255 -0.713301 2.862200 -6.971563 -10.315427 0.678676 -11.365428 14.561314 -24.455830 -33.815187 -0.031558 -41.178727 -31.466786 11.137459 14.227131 -41.717267 -0.867876 13.896853 -12.393386 6.238600 18.975282 33.309732 1.555657 22.229146 28.134475 -0.948226 -18.671685 29.775889 -11.758640 -4.814865 9.091895 12.720954 
-0.149758 0.204023 0.971216 55.936364 -6.922235 99.700129 3.857188 11.608968 -9.096670 -1.544323 12.599839 18.485030 -1.858028 13.662243 -15.086386 0.000000 -0.000000 0.000000 -10.710582 1.091630 -35.587665 -2.250980 4.486128 31.018474 6.480366 -0.981805 -9.890284 0.000000 -0.000000 0.000000 6.232253 -8.020322 41.241280 2.941285 -2.892628 0.803809 2.055446 -1.121900 -0.712210 2.410721 -6.660806 -11.308990 1.646559 -11.393415 13.062359 -22.460358 -37.597701 -1.327599 -38.511222 -34.225486 9.057978 13.567363 -37.429607 -2.402744 13.872502 -12.551407 7.224214 17.182616 35.642578 0.443027 21.417366 28.915469 -2.194219 -18.463264 27.751033 -12.877217 -6.518077 8.673965 12.710462 
